<svg width="350" height="350" viewBox="0 0 350 350" fill="none" xmlns="http://www.w3.org/2000/svg">
<g clip-path="url(#clip0_75_2)">
<mask id="mask0_75_2" style="mask-type:luminance" maskUnits="userSpaceOnUse" x="0" y="0" width="350" height="350">
<path d="M350 0H0V350H350V0Z" fill="white"/>
</mask>
<g mask="url(#mask0_75_2)">
<path d="M258.1 290.4C257.4 290.9 256.6 291.4 255.9 291.9C255.1 292.4 254.4 292.9 253.6 293.3C252.9 293.7 252.3 294.1 251.6 294.5C251.5 294.6 251.4 294.6 251.3 294.7C249 296.1 246.6 297.4 244.2 298.6C243.5 299 242.7 299.4 242 299.7C242 299.7 241.9 299.8 241.8 299.8L239.4 301C237.8 301.8 236.1 302.5 234.5 303.2C233.7 303.6 232.8 303.9 232 304.2C231.2 304.5 230.3 304.9 229.5 305.2C228.7 305.5 227.8 305.9 227 306.2H226.9C226.1 306.5 225.2 306.8 224.4 307.1C222.6 307.7 220.7 308.3 218.9 308.9C218.3 309.1 217.6 309.3 217 309.5C215.1 310.1 213.2 310.6 211.3 311C210.6 311.2 209.9 311.3 209.1 311.5C207.3 311.9 205.4 312.3 203.6 312.7C203.2 312.8 202.9 312.8 202.5 312.9C201.9 313 201.2 313.1 200.6 313.2C199.7 313.3 198.9 313.5 198 313.6C197.6 313.7 197.2 313.7 196.8 313.8C196.3 313.9 195.7 314 195.1 314C193.5 314.2 191.8 314.4 190.2 314.6C189.7 314.7 189.1 314.7 188.6 314.8H188.5C187.8 314.9 187.1 314.9 186.4 315C185.7 315.1 185 315.1 184.3 315.1C183.9 315.1 183.4 315.2 183 315.2C182.2 315.2 181.5 315.3 180.8 315.3C179.8 315.3 178.9 315.4 177.9 315.4H172.9C130.7 314.8 92.8 296.9 65.7 268.5C65.7 268.5 65.7 268.4 65.6 268.4C62.6 265.7 65.2 251.3 77.3 242.2C92.5 230.7 128.9 223.5 128.9 223.5C128.9 223.5 143 221.2 195.3 232.1C225.9 238.5 249.2 247.8 262.2 273C264.9 278.2 267.6 286.2 258.1 290.4Z" fill="white"/>
<path d="M195.6 231C214.8 234.9 235.3 239.1 251.1 251.8C256.4 256.1 259.9 262.4 262.8 268.5C264.2 271.5 265.6 274.6 266.7 277.9C267.3 280.1 268.2 282.6 267.7 285.2C267.6 285.9 267 286.8 266.5 287.3C264.2 289.6 261.7 291 259.2 292.8C244.5 303 227.6 310.2 210.1 314C171.1 322.5 128.9 315.9 94.6001 295.4C83.2001 288.5 72.7001 280.1 63.7001 270.2C62.7001 269 62.7001 267 62.7001 265.7C62.8001 262.7 63.6001 259.8 64.6001 257.1C67.0001 250.9 70.1001 244.7 75.4001 240.4C79.2001 237.8 83.3001 235.6 87.5001 233.8C100.7 228.2 114.6 224.3 128.9 222.7C130.1 222.6 130.3 224.3 129.1 224.5C115.4 227.3 101.8 231.5 89.1001 237.2C84.5001 239.5 79.6001 241.5 75.9001 245.1C72.4001 248.9 69.9001 253.6 67.9001 258.4C66.6001 261.3 65.7001 265.9 66.1001 268.2C72.4001 275.7 79.8001 282.3 87.8001 288C131.6 318.6 198.1 320.6 244.7 295.1C248.9 292.8 253 290.2 256.9 287.5C258.8 286.2 260.8 285.1 262.3 283.6C262.4 283.5 262.3 283.6 262.3 283.7C262.3 283.8 262.2 283.9 262.2 283.9C262.3 282.7 261.9 281.1 261.4 279.5C259.6 273.7 256.7 267.6 253.6 262.3C248.7 254.4 240.4 249.4 232 245.4C226.2 242.7 220.1 240.6 213.9 238.6C207.7 236.6 201.4 234.9 195.1 233.4C193.5 233 194 230.7 195.6 231Z" fill="black"/>
<path d="M291.3 352.401H38.4C38.4 352.401 53.3 321.001 59.9 285.201C64.5 260.401 67.9 245.901 80.8 237.901C89.9 232.301 109.4 226.501 117.8 223.501C123.5 221.501 124.7 223.201 128.8 222.101C128.8 222.601 128.9 223.001 128.9 223.501C128.9 223.501 139.7 255.601 167.8 267.001C190.7 276.301 204.3 270.101 206.4 259.801C207.7 253.201 203.6 242.401 201.5 238.901C200.3 237.901 199.5 236.401 199.1 234.901L198.3 231.601C200.2 231.201 202 230.701 203.8 230.101C204.4 229.901 204.9 229.701 205.5 229.501C217 232.501 241.6 242.201 252.5 252.201C256.8 256.201 267 276.201 273.6 305.201C281.2 338.101 291.3 352.401 291.3 352.401Z" fill="black"/>
<path d="M293.6 353.6C218.3 354.1 112.6 355.3 38.5 355C36.7 355 35.4 353 36.2 351.4C45.1 331.8 52.1 310.9 56.6 289.8C57.1 287.1 58.2 281.8 58.7 279.1C61 268.1 62.8 257.2 68.7 247.1C70.7 243.8 73.3 240.7 76.4 238.2C79.4 235.8 82.9 234 86.4 232.4C97.6 227.6 108.9 223.8 120.4 220.3C123.1 219.7 125.8 220.4 128.4 219.8C129.9 219.4 131.5 220.5 131.6 222.1L131.7 223.5L129 221C130.1 221 131.1 221.7 131.4 222.7C132.2 225 133.3 227.4 134.4 229.7C137.8 236.6 142 243.1 147.1 248.8C153.8 256.4 162.2 262.4 171.8 265.8C181.5 269.4 198.8 272.5 203.6 260.9C204.4 258.8 204.3 256.6 204 254.3C203.3 249.6 201.7 244.6 199.4 240.4L199.9 241C198.3 238.9 197.7 236.4 197.9 234V231.6C197.9 231.4 198.1 231.2 198.3 231.2C199.5 230.8 200.6 230.3 201.8 229.9C202.9 229.4 204 228.9 205.1 228.3C205.4 228.1 205.7 228.2 206 228.3C212.6 230 218.9 232.3 225.2 234.9C234.6 238.8 243.9 243.2 252 249.5C254.9 251.6 257 254.7 258.7 257.8C262.1 263.8 264.8 270 267.2 276.3C271.4 287.3 274.5 298.7 277.2 310.2C280.6 322.9 284.7 335.5 291 347.1L293.1 350.7L293.3 350.9V351C293.9 351.5 294 352.9 293.6 353.6ZM289 351.2C288.5 351.7 288.6 353.1 289 353.6V353.5L288.8 353.2C281.8 341.7 277.4 328.8 273.8 315.9C272 309.6 270.7 302.8 268.9 296.4C265.4 283.8 261.1 271.1 254.8 259.6C253.7 257.7 252.5 255.6 251 254.1C248.1 251.4 244.7 249.2 241.3 247.1C235.7 243.8 229.7 240.9 223.6 238.4C217.5 235.9 211.3 233.6 205 231.9L206.5 231.8C203.8 232 201.2 232.1 198.6 232L199 231.4C199.6 232.4 200.3 234.1 200.9 235C201.6 235.9 202.4 236.6 203.3 237C203.5 237.2 203.7 237.4 203.8 237.6C207.4 244.5 211 254.8 208.4 262.5C202.4 277.6 182.3 275.2 170 270.5C159.7 267 150.4 260.3 143.2 252.1C136 243.9 130.3 234.5 126.5 224.3L128.9 226C127.5 226 126.4 225 126.3 223.6L126.2 222.3L129.4 224.6C128.4 224.9 127.2 225 126.1 225.1C123.3 225 121.4 224.9 118.8 225.9C115.4 227.1 111.9 228.3 108.4 229.4C101.5 231.7 94.7 234.1 88.2 237C73.4 242.9 69.1 254.7 65.7 269.4C64.1 276.2 62.8 283.9 61.4 290.8C56.8 312.4 49.8 333.3 40.7 353.5L38.4 349.8C110.9 349.8 215.5 350.5 289 351.2Z" fill="black"/>
<path d="M159.2 277.5C124.7 262 111.3 234.3 113.9 226.8C113.9 226.8 113.9 226.7 114 226.6C115.8 222.9 118.7 219.9 122.3 217.8C124.3 216.6 126.5 215.5 128.3 214.9C155.6 208.1 191.8 219.6 204 230.1C208.4 235.4 212.9 240.7 214.6 254.7C217 274.9 194.9 293.6 159.2 277.5Z" fill="white"/>
<path d="M158.7 278.6C141.4 270.8 125.2 258.6 116 241.7C114.2 238.2 112.6 234.6 112.1 230.5C112 229.1 111.9 227.4 112.6 226C114.7 221.8 118.5 218.5 122.7 216.5C125.9 214.8 129.4 213.6 132.9 212.5C137.9 211.6 142.9 211.3 148 211.4C164.7 211.9 181.3 216.3 196.1 224C197.2 224.6 198.3 225.2 199.4 225.9C199.8 226.1 200.1 226.4 200.6 226.3C201.1 226.2 201.5 226.4 201.9 226.6C203.1 227.3 204.1 228.2 205.2 229.2C207.9 232.5 210.6 236 212.4 240C214.2 244 215.2 248.3 215.8 252.5C217.4 261.1 214.5 270.7 207.8 276.6C194.2 288.8 173.8 285.5 158.7 278.6ZM159.6 276.5C170.8 281.4 183.6 284.5 195.5 280.7C205.1 277.8 213 269.1 213.3 258.9C213.4 252.9 212 246.6 209.6 241.1C208.3 237.7 204.7 233.4 202.9 231.2C201.8 230.3 200.6 229.6 199.6 228.7L199.3 228.1C199.1 227.6 198.7 227.5 198.4 227.2C197.4 226.6 196.3 226 195.2 225.4C186.5 220.9 176.9 218.3 167.3 216.4C156.1 214.3 144.6 213.7 133.3 215.3C131.7 215.5 130 215.3 128.4 215.7C127.2 216.2 125 217.2 123.6 218.2C120 220.3 117.3 223.4 115.4 227.1L115.3 227.2C115.3 227.3 115.2 227.5 115.2 227.6C114.7 231.8 116.7 236.1 118.6 240C120.3 243.2 122.3 246.3 124.6 249.3C133.8 261.2 146.1 270.4 159.6 276.5Z" fill="black"/>
<path d="M204.999 257.6C202.899 267.9 189.299 274.1 166.399 264.8C142.599 255.2 132.299 232.3 129.699 225.5C143.799 199.1 133.999 180.8 133.999 180.8C166.499 178 194.899 216 194.899 216L199.299 234.8C199.699 236.4 200.499 237.8 201.699 238.8C203.799 242.5 206.299 251 204.999 257.6Z" fill="white"/>
<path d="M129.2 225.8C131.1 222.9 132.3 219.5 133.1 216.2C134.6 209.3 135.1 202.3 135.2 195.3V192.7C134.9 190.1 134 187.4 133 185C131.7 181.8 136.4 179.8 137.9 183C138.1 183.4 138.1 184.1 138.1 184.5C138.4 198.1 139 215.6 130.4 226.9C129.8 227.5 128.6 226.6 129.2 225.8ZM196 215.8C197.5 216.7 198 217.9 198.2 219.1C198.8 221.5 198.6 224.1 199.2 226.6C199.7 229 201.2 231.3 201.6 233.8C202.1 236.4 203.6 241.9 204.2 244.6C204.4 245.2 204 245.9 203.3 246C202.9 246.1 202.6 246 202.3 245.8C201 244.7 200.4 243.6 199.6 242.2C198.3 239.8 197.4 237.6 196.6 234.9C195.9 232.5 196.2 229.9 195.6 227.4C195.1 225 193.7 222.7 193.2 220.2C192.9 219 192.8 217.7 193.7 216.2C194.3 215.6 195.3 215.4 196 215.8Z" fill="black"/>
<path d="M203.2 242.2C184.1 241.2 168.5 235.2 153.3 208.1C166.1 219.4 181.2 223.7 197.1 225.7L199.2 234.9C199.6 236.5 202 241.2 203.2 242.2Z" fill="black"/>
<path d="M202.4 238.5C205.8 244.9 207.8 252.9 205.7 260C204.1 265 199.5 268.7 194.5 270.1C182.9 273.2 169.5 268.3 159.2 262.8C146.5 255.7 137.1 243.8 131.1 230.8C130.7 229.8 132.1 229 132.7 230C134.8 234.2 137.2 238.3 139.9 242C142.6 245.8 145.7 249.3 149.2 252.4C159.4 261.6 173.2 267.3 187 267.3C201.2 266.9 206.6 259.4 203.3 245.6C202.8 243.4 202 241.1 200.9 239.2C200.3 238.4 201.8 237.5 202.4 238.5Z" fill="black"/>
<path d="M241.1 118.4C242.9 126.8 243.8 133.6 238.9 156C234.1 178.3 245.8 182.9 218.1 218.6C206.8 233.2 179.4 229.1 157.2 214C149.7 208.9 146.5 195.8 140.9 186.5C136.5 179.2 134.5 186.8 128.7 180.5C120.8 171.9 111.3 154.6 116 124C123.6 74.4005 162.9 68.6004 192 74.1004C221.3 79.7004 236.3 96.3005 241.1 118.4Z" fill="white"/>
<path d="M133.7 189.4C131.4 185.5 128.4 182.1 125.6 178.5C122.9 174.8 120.7 170.7 118.9 166.5C107 137.3 111.6 96.2005 140.8 79.0005C152.9 72.0005 167.5 70.3005 181.1 71.4005C210.2 73.5005 236.9 86.9005 243.2 117.7C246.6 131.3 242 145.3 239.4 158.6C238.2 165.2 239.2 172 239.1 178.8C239 185.7 237.1 192.6 234.5 199C232.9 203.4 230.1 207.3 227.2 210.9C222.4 216.7 217.6 222.6 211.5 227.1C210.1 228.1 207.6 228.6 205.9 228.8C201.2 229.5 196.6 229.7 191.9 229.4C173.5 228.6 153.8 219.7 146.4 201.9C146.1 201.2 147.1 200.7 147.5 201.3C157.1 216.5 174.7 224 192.2 225C197.6 225.3 203.1 225.2 208.4 224.1C211 222.8 213.3 220.5 215.5 218.4C220.9 213 226.4 207.2 230.3 200.6C235 191.7 237.6 182 236.8 171.9C236.6 167.4 236.5 162.7 237.4 158.2C238.2 153.7 239.2 149.4 239.8 144.8C240.4 140.4 240.7 135.9 240.7 131.5C240.2 118.6 236 105.3 227.8 95.3006C209.7 72.8006 166.9 66.9006 142.8 82.3006C127.6 91.7006 120.5 109.3 118.2 126.4C114.7 146.9 115.7 167.1 132 182L136.8 187C138.7 189.2 135.3 191.8 133.7 189.4Z" fill="black"/>
<path d="M145.499 157.6C145.499 157.6 142.399 142.6 127.799 144.4C115.199 146 110.799 176.2 139.399 184.6" fill="white"/>
<path d="M138.1 171.5C135.8 170.2 134.2 168 134.1 165.3C134.2 163.3 134.5 161 134 159C133.7 157.1 131.7 156.6 130.2 156.7C128.6 157 127.6 159 127.3 160.6C127.3 160.7 127.2 161 127.2 161.1C127.1 161.6 126.3 161.6 126.1 161.1C124.8 157.2 127.7 152.9 131.9 153.4C137.8 153.8 138.6 160 137.5 164.7C136.9 166.7 137.7 168.5 138.8 170.2L139 170.5C139.5 171.1 138.7 171.9 138.1 171.5ZM218.1 147C219.6 154.1 222.4 160.7 225.9 166.9C229 174.5 221 181.7 213.9 181.4C213.1 181.4 213 180.3 213.7 180.1C218.2 178.7 222.3 175.7 223 171.1C223.3 169.7 222.9 168.5 222.2 167.3C218.9 161.1 216.9 154 217.4 147C217.4 146.5 218.1 146.5 218.1 147Z" fill="black"/>
<path d="M145 157.7C142.7 151.8 137.7 146.2 131 146.3C130.4 146.2 129.4 146.4 128.8 146.4C127.1 146.5 125.7 147.1 124.4 148.3C118 154.7 119.1 166 124.3 173.1C126.1 175.6 128.4 177.8 131 179.6C133.6 181.4 136.5 182.8 139.6 184C140.3 184.2 140 185.3 139.3 185.2C132.6 183.8 126.2 180.5 121.8 175C115 166.8 113.6 153.1 121.7 145.1C123.5 143.5 126 142.3 128.5 142.3C129.3 142.3 130.5 142.1 131.3 142.3C135.5 142.5 139.5 144.6 142.1 147.9C144.4 150.7 145.7 154.1 146.1 157.5C146.1 158.1 145.2 158.3 145 157.7Z" fill="black"/>
<path d="M244.2 72.5003C220.2 65.7003 217.6 78.1003 193.6 64.9003C169.6 51.6003 126.1 60.5003 118 91.4003C118 91.4003 104.6 99.6003 103.7 127.9C103.1 146.9 113 164.3 119.5 173.6C123.9 180.8 128.5 186.1 131.2 190.9C135.5 198.6 137.6 207 137.6 207C138.6 197.4 140.9 188.6 139.5 184.7L136.2 183.6C111.2 174 115.7 146.1 127.9 144.5C140.7 142.9 144.7 154.3 145.4 157.1C147.1 155 146.5 148.7 146.1 141.2C166.1 151.1 186.1 128.6 192.8 111.2C201.1 89.7003 219.4 106.5 219.4 106.5C219.4 106.5 237.5 140.4 256.7 125.3C273.7 111.7 270.3 79.8003 244.2 72.5003Z" fill="black"/>
<path d="M196.2 134C198.4 133.8 199.5 131.2 198.3 129.2C197.6 128.2 196.7 127.3 195.4 126.8C191.6 125.6 179.2 128.3 173.8 134.5C169 140.2 186.2 134.9 196.2 134ZM222.6 135.6C220.9 135.1 220.4 132.6 221.8 131C222.5 130.2 223.5 129.5 224.6 129.3C228 128.7 235.8 131.8 238 137.7C240 142.8 230.7 137.6 222.6 135.6ZM180.8 157.2C178.4 157.1 176.6 155.1 176.8 152.7L176.9 149.9C177 147.5 179 145.7 181.4 145.9C183.8 146 185.6 148 185.4 150.4L185.3 153.2C185.2 155.5 183.2 157.3 180.8 157.2ZM222.9 158.7C220.7 158.6 219 156.7 219.1 154.5L219.2 151.9C219.3 149.7 221.2 148 223.4 148.1C225.6 148.2 227.3 150.1 227.2 152.3L227.1 154.9C227 157.1 225.1 158.8 222.9 158.7Z" fill="black"/>
<path d="M189.8 151.8C186.5 149.6 182.9 148.1 178.9 148.9C177.6 149.1 176.3 149.5 175.5 150.4C175.2 150.8 174.5 150.7 174.5 150.1C174.6 148.1 176.3 146.8 177.9 146C181 144.4 185.3 144.7 188.1 146.8C189.1 147.4 192.5 151.1 190.7 151.9C190.3 152.1 190.1 152 189.8 151.8ZM218.399 152.3C218.399 148.1 223.599 146.6 226.799 148.1C228.599 148.9 229.899 150.5 230.399 152.4C230.599 153 229.699 153.5 229.299 153C227.599 151 224.699 150 222.399 151.2C221.699 151.6 221.599 151.9 221.399 152.3C221.399 154.3 218.499 154.2 218.399 152.3Z" fill="black"/>
<path d="M210.5 191.4C204.1 197.5 192 192.6 188.8 185.2C188.4 184.3 189.4 183.5 190.2 183.9C191.9 184.8 193.4 185.7 195 186.4C199.6 188.5 204.4 190.2 209.5 189.7C210.5 189.5 211.2 190.7 210.5 191.4Z" fill="black"/>
<path d="M134.3 160.7C134.3 160.7 126.3 159.5 126.9 170.7C127.2 176.4 127.2 179.5 127.1 181.1C127 182.2 127.7 183.2 128.7 183.6C129.9 184.1 131.2 183.6 131.8 182.4C132.7 180.8 133.7 178.6 133.7 176.8C133.7 173.8 136.9 171.1 136.9 171.1C136.9 171.1 134 168.6 134.3 160.7Z" fill="white"/>
<path d="M134 161C134 161.1 134.1 161.2 134.2 161.2H133.9C129.1 161.6 127.6 165.8 127.8 170.1C127.9 172.9 128.1 175.7 128 178.4C128.2 179.9 127.3 181.9 128.8 182.7C129.7 183.2 130.9 182.8 131.3 181.8C132.2 180 133.1 178.2 133.1 176.2C133.5 173.9 135 172.1 136.6 170.7V171.5C134.5 169.3 134 166.3 133.7 163.5C133.8 162.8 133.8 161.7 134 161ZM134.7 160.3C135 163.1 135 166 136.2 168.5C136.5 169.2 137 170 137.6 170.5C138 170.8 138 171.4 137.6 171.7C136.2 173 135 174.6 134.8 176.4C134.8 178.6 133.9 180.7 132.9 182.6C132.1 184.3 129.8 185.2 128.1 184.2C127 183.6 126.2 182.4 126.2 181.1C126.2 180.1 126.3 179.3 126.3 178.3C126.3 175.5 126.1 172.8 126 170C126 168.2 126.1 166.1 126.9 164.3C127.9 161.5 131 159.6 134 160.1C134.3 160.1 134.6 160.2 134.7 160.3Z" fill="black"/>
<path d="M127.2 176.5C127.3 178.7 127.2 180.2 127.2 181.1C127.1 182.2 127.8 183.2 128.8 183.6C130 184.1 131.3 183.6 131.9 182.4C132.8 180.8 133.8 178.6 133.8 176.8V176.4C131.8 177.2 129.4 177.8 127.2 176.5Z" fill="white"/>
<path d="M127.5 176.9C127.6 178.3 127.7 179.6 127.7 181C127.6 181.6 127.8 182.2 128.2 182.7C129.5 184 131.3 183.2 131.8 181.6C132.6 180 133.3 178.3 133.3 176.5L134 177C131.8 177.4 129.5 178 127.4 177.1C127.4 177.1 127.5 177 127.5 176.9ZM127 176C127.2 176 127.6 176.1 127.8 176.3C129.6 177.6 131.9 177 133.7 176C134 175.8 134.5 176.1 134.4 176.5C134.3 178.8 133.4 181 132.2 183C131.1 184.5 128.8 184.6 127.5 183.3C126.9 182.7 126.6 181.7 126.7 180.9C126.7 179.2 126.9 177.6 127 176Z" fill="black"/>
</g>
</g>
<defs>
<clipPath id="clip0_75_2">
<rect width="350" height="350" fill="white"/>
</clipPath>
</defs>
</svg>
