<svg xmlns="http://www.w3.org/2000/svg"><svg xmlns="http://www.w3.org/2000/svg" width="306" height="306" fill="none" style="z-index: 2; position: absolute; pointer-events: none;"><path fill="#fff" d="M236.1 278.4c-.7.5-1.5 1-2.2 1.5-.8.5-1.5 1-2.3 1.4-.7.4-1.3.8-2 1.2-.1.1-.2.1-.3.2-2.3 1.4-4.7 2.7-7.1 3.9-.7.4-1.5.8-2.2 1.1 0 0-.1.1-.2.1l-2.4 1.2c-1.6.8-3.3 1.5-4.9 2.2-.8.4-1.7.7-2.5 1-.8.3-1.7.7-2.5 1-.8.3-1.7.7-2.5 1h-.1c-.8.3-1.7.6-2.5.9-1.8.6-3.7 1.2-5.5 1.8-.6.2-1.3.4-1.9.6-1.9.6-3.8 1.1-5.7 1.5-.7.2-1.4.3-2.2.5-1.8.4-3.7.8-5.5 1.2-.4.1-.7.1-1.1.2-.6.1-1.3.2-1.9.3-.9.1-1.7.3-2.6.4-.4.1-.8.1-1.2.2-.5.1-1.1.2-1.7.2-1.6.2-3.3.4-4.9.6-.5.1-1.1.1-1.6.2h-.1c-.7.1-1.4.1-2.1.2-.7.1-1.4.1-2.1.1-.4 0-.9.1-1.3.1-.8 0-1.5.1-2.2.1-1 0-1.9.1-2.9.1h-5c-42.2-.6-80.1-18.5-107.2-46.9 0 0 0-.1-.1-.1-3-2.7-.4-17.1 11.7-26.2 15.2-11.5 51.6-18.7 51.6-18.7s14.1-2.3 66.4 8.6c30.6 6.4 53.9 15.7 66.9 40.9 2.7 5.2 5.4 13.2-4.1 17.4Z"></path><path fill="#000" d="M173.6 219c19.2 3.9 39.7 8.1 55.5 20.8 5.3 4.3 8.8 10.6 11.7 16.7 1.4 3 2.8 6.1 3.9 9.4.6 2.2 1.5 4.7 1 7.3-.1.7-.7 1.6-1.2 2.1-2.3 2.3-4.8 3.7-7.3 5.5-14.7 10.2-31.6 17.4-49.1 21.2-39 8.5-81.2 1.9-115.5-18.6-11.4-6.9-21.9-15.3-30.9-25.2-1-1.2-1-3.2-1-4.5.1-3 .9-5.9 1.9-8.6 2.4-6.2 5.5-12.4 10.8-16.7 3.8-2.6 7.9-4.8 12.1-6.6 13.2-5.6 27.1-9.5 41.4-11.1 1.2-.1 1.4 1.6.2 1.8-13.7 2.8-27.3 7-40 12.7-4.6 2.3-9.5 4.3-13.2 7.9-3.5 3.8-6 8.5-8 13.3-1.3 2.9-2.2 7.5-1.8 9.8 6.3 7.5 13.7 14.1 21.7 19.8 43.8 30.6 110.3 32.6 156.9 7.1 4.2-2.3 8.3-4.9 12.2-7.6 1.9-1.3 3.9-2.4 5.4-3.9.1-.1 0 0 0 .1s-.1.2-.1.2c.1-1.2-.3-2.8-.8-4.4-1.8-5.8-4.7-11.9-7.8-17.2-4.9-7.9-13.2-12.9-21.6-16.9-5.8-2.7-11.9-4.8-18.1-6.8-6.2-2-12.5-3.7-18.8-5.2-1.6-.4-1.1-2.7.5-2.4Z"></path></svg><svg xmlns="http://www.w3.org/2000/svg" width="306" height="344" fill="none" style="z-index: 3; position: absolute; pointer-events: none;"><path fill="#000" d="M269.3 340.401H16.4s14.9-31.4 21.5-67.2c4.6-24.8 8-39.3 20.9-47.3 9.1-5.6 28.6-11.4 37-14.4 5.7-2 6.9-.3 11-1.4 0 .5.1.9.1 1.4 0 0 10.8 32.1 38.9 43.5 22.9 9.3 36.5 3.1 38.6-7.2 1.3-6.6-2.8-17.4-4.9-20.9-1.2-1-2-2.5-2.4-4l-.8-3.3c1.9-.4 3.7-.9 5.5-1.5.6-.2 1.1-.4 1.7-.6 11.5 3 36.1 12.7 47 22.7 4.3 4 14.5 24 21.1 53 7.6 32.9 17.7 47.2 17.7 47.2Z"></path><path fill="#000" d="M271.6 341.6c-75.3.5-181 1.7-255.1 1.4-1.8 0-3.1-2-2.3-3.6 8.9-19.6 15.9-40.5 20.4-61.6.5-2.7 1.6-8 2.1-10.7 2.3-11 4.1-21.9 10-32 2-3.3 4.6-6.4 7.7-8.9 3-2.4 6.5-4.2 10-5.8 11.2-4.8 22.5-8.6 34-12.1 2.7-.6 5.4.1 8-.5 1.5-.4 3.1.7 3.2 2.3l.1 1.4-2.7-2.5c1.1 0 2.1.7 2.4 1.7.8 2.3 1.9 4.7 3 7 3.4 6.9 7.6 13.4 12.7 19.1 6.7 7.6 15.1 13.6 24.7 17 9.7 3.6 27 6.7 31.8-4.9.8-2.1.7-4.3.4-6.6-.7-4.7-2.3-9.7-4.6-13.9l.5.6c-1.6-2.1-2.2-4.6-2-7v-2.4c0-.2.2-.4.4-.4 1.2-.4 2.3-.9 3.5-1.3 1.1-.5 2.2-1 3.3-1.6.3-.2.6-.1.9 0 6.6 1.7 12.9 4 19.2 6.6 9.4 3.9 18.7 8.3 26.8 14.6 2.9 2.1 5 5.2 6.7 8.3 3.4 6 6.1 12.2 8.5 18.5 4.2 11 7.3 22.4 10 33.9 3.4 12.7 7.5 25.3 13.8 36.9l2.1 3.6.2.2v.1c.6.5.7 1.9.3 2.6Zm-4.6-2.4c-.5.5-.4 1.9 0 2.4v-.1l-.2-.3c-7-11.5-11.4-24.4-15-37.3-1.8-6.3-3.1-13.1-4.9-19.5-3.5-12.6-7.8-25.3-14.1-36.8-1.1-1.9-2.3-4-3.8-5.5-2.9-2.7-6.3-4.9-9.7-7-5.6-3.3-11.6-6.2-17.7-8.7-6.1-2.5-12.3-4.8-18.6-6.5l1.5-.1c-2.7.2-5.3.3-7.9.2l.4-.6c.6 1 1.3 2.7 1.9 3.6.7.9 1.5 1.6 2.4 2 .2.2.4.4.5.6 3.6 6.9 7.2 17.2 4.6 24.9-6 15.1-26.1 12.7-38.4 8-10.3-3.5-19.6-10.2-26.8-18.4-7.2-8.2-12.9-17.6-16.7-27.8l2.4 1.7c-1.4 0-2.5-1-2.6-2.4l-.1-1.3 3.2 2.3c-1 .3-2.2.4-3.3.5-2.8-.1-4.7-.2-7.3.8-3.4 1.2-6.9 2.4-10.4 3.5-6.9 2.3-13.7 4.7-20.2 7.6-14.8 5.9-19.1 17.7-22.5 32.4-1.6 6.8-2.9 14.5-4.3 21.4-4.6 21.6-11.6 42.5-20.7 62.7l-2.3-3.7c72.5 0 177.1.7 250.6 1.4Z"></path><path fill="#fff" d="M137.2 265.5c-34.5-15.5-47.9-43.2-45.3-50.7 0 0 0-.1.1-.2 1.8-3.7 4.7-6.7 8.3-8.8 2-1.2 4.2-2.3 6-2.9 27.3-6.8 63.5 4.7 75.7 15.2 4.4 5.3 8.9 10.6 10.6 24.6 2.4 20.2-19.7 38.9-55.4 22.8Z"></path><path fill="#000" d="M136.7 266.6c-17.3-7.8-33.5-20-42.7-36.9-1.8-3.5-3.4-7.1-3.9-11.2-.1-1.4-.2-3.1.5-4.5 2.1-4.2 5.9-7.5 10.1-9.5 3.2-1.7 6.7-2.9 10.2-4 5-.9 10-1.2 15.1-1.1 16.7.5 33.3 4.9 48.1 12.6 1.1.6 2.2 1.2 3.3 1.9.4.2.7.5 1.2.4.5-.1.9.1 1.3.3 1.2.7 2.2 1.6 3.3 2.6 2.7 3.3 5.4 6.8 7.2 10.8 1.8 4 2.8 8.3 3.4 12.5 1.6 8.6-1.3 18.2-8 24.1-13.6 12.2-34 8.9-49.1 2Zm.9-2.1c11.2 4.9 24 8 35.9 4.2 9.6-2.9 17.5-11.6 17.8-21.8.1-6-1.3-12.3-3.7-17.8-1.3-3.4-4.9-7.7-6.7-9.9-1.1-.9-2.3-1.6-3.3-2.5l-.3-.6c-.2-.5-.6-.6-.9-.9-1-.6-2.1-1.2-3.2-1.8-8.7-4.5-18.3-7.1-27.9-9-11.2-2.1-22.7-2.7-34-1.1-1.6.2-3.3 0-4.9.4-1.2.5-3.4 1.5-4.8 2.5-3.6 2.1-6.3 5.2-8.2 8.9l-.1.1c0 .1-.1.3-.1.4-.5 4.2 1.5 8.5 3.4 12.4 1.7 3.2 3.7 6.3 6 9.3 9.2 11.9 21.5 21.1 35 27.2Z"></path></svg><svg xmlns="http://www.w3.org/2000/svg" width="306" height="306" fill="none" style="z-index: 4; position: absolute; pointer-events: none;"><path fill="#fff" d="M182.999 245.6c-2.1 10.3-15.7 16.5-38.6 7.2-23.8-9.6-34.1-32.5-36.7-39.3 14.1-26.4 4.3-44.7 4.3-44.7 32.5-2.8 60.9 35.2 60.9 35.2l4.4 18.8c.4 1.6 1.2 3 2.4 4 2.1 3.7 4.6 12.2 3.3 18.8Z"></path><path fill="#000" d="M107.2 213.8c1.9-2.9 3.1-6.3 3.9-9.6 1.5-6.9 2-13.9 2.1-20.9v-2.6c-.3-2.6-1.2-5.3-2.2-7.7-1.3-3.2 3.4-5.2 4.9-2 .2.4.2 1.1.2 1.5.3 13.6.9 31.1-7.7 42.4-.6.6-1.8-.3-1.2-1.1ZM174 203.8c1.5.9 2 2.1 2.2 3.3.6 2.4.4 5 1 7.5.5 2.4 2 4.7 2.4 7.2.5 2.6 2 8.1 2.6 10.8.2.6-.2 1.3-.9 1.4-.4.1-.7 0-1-.2-1.3-1.1-1.9-2.2-2.7-3.6-1.3-2.4-2.2-4.6-3-7.3-.7-2.4-.4-5-1-7.5-.5-2.4-1.9-4.7-2.4-7.2-.3-1.2-.4-2.5.5-4 .6-.6 1.6-.8 2.3-.4Z"></path><path fill="#000" d="M181.2 230.2c-19.1-1-34.7-7-49.9-34.1 12.8 11.3 27.9 15.6 43.8 17.6l2.1 9.2c.4 1.6 2.8 6.3 4 7.3Z"></path><path fill="#000" d="M180.4 226.5c3.4 6.4 5.4 14.4 3.3 21.5-1.6 5-6.2 8.7-11.2 10.1-11.6 3.1-25-1.8-35.3-7.3-12.7-7.1-22.1-19-28.1-32-.4-1 1-1.8 1.6-.8 2.1 4.2 4.5 8.3 7.2 12 2.7 3.8 5.8 7.3 9.3 10.4 10.2 9.2 24 14.9 37.8 14.9 14.2-.4 19.6-7.9 16.3-21.7-.5-2.2-1.3-4.5-2.4-6.4-.6-.8.9-1.7 1.5-.7Z"></path><path fill="#fff" d="M219.1 106.4c1.8 8.4 2.7 15.2-2.2 37.6-4.8 22.3 6.9 26.9-20.8 62.6-11.3 14.6-38.7 10.5-60.9-4.6-7.5-5.1-10.7-18.2-16.3-27.5-4.4-7.3-6.4.3-12.2-6-7.9-8.6-17.4-25.9-12.7-56.5 7.6-49.6 46.9-55.4 76-49.9 29.3 5.6 44.3 22.2 49.1 44.3Z"></path><path fill="#000" d="M111.7 177.4c-2.3-3.9-5.3-7.3-8.1-10.9-2.7-3.7-4.9-7.8-6.7-12C85 125.3 89.6 84.2 118.8 67c12.1-7 26.7-8.7 40.3-7.6 29.1 2.1 55.8 15.5 62.1 46.3 3.4 13.6-1.2 27.6-3.8 40.9-1.2 6.6-.2 13.4-.3 20.2-.1 6.9-2 13.8-4.6 20.2-1.6 4.4-4.4 8.3-7.3 11.9-4.8 5.8-9.6 11.7-15.7 16.2-1.4 1-3.9 1.5-5.6 1.7-4.7.7-9.3.9-14 .6-18.4-.8-38.1-9.7-45.5-27.5-.3-.7.7-1.2 1.1-.6 9.6 15.2 27.2 22.7 44.7 23.7 5.4.3 10.9.2 16.2-.9 2.6-1.3 4.9-3.6 7.1-5.7 5.4-5.4 10.9-11.2 14.8-17.8 4.7-8.9 7.3-18.6 6.5-28.7-.2-4.5-.3-9.2.6-13.7.8-4.5 1.8-8.8 2.4-13.4.6-4.4.9-8.9.9-13.3-.5-12.9-4.7-26.2-12.9-36.2-18.1-22.5-60.9-28.4-85-13-15.2 9.4-22.3 27-24.6 44.1-3.5 20.5-2.5 40.7 13.8 55.6l4.8 5c1.9 2.2-1.5 4.8-3.1 2.4Z"></path><path fill="#fff" d="M123.499 145.6s-3.1-15-17.7-13.2c-12.6 1.6-17 31.8 11.6 40.2"></path><path fill="#000" d="M116.1 159.5c-2.3-1.3-3.9-3.5-4-6.2.1-2 .4-4.3-.1-6.3-.3-1.9-2.3-2.4-3.8-2.3-1.6.3-2.6 2.3-2.9 3.9 0 .1-.1.4-.1.5-.1.5-.9.5-1.1 0-1.3-3.9 1.6-8.2 5.8-7.7 5.9.4 6.7 6.6 5.6 11.3-.6 2 .2 3.8 1.3 5.5l.2.3c.5.6-.3 1.4-.9 1ZM196.1 135c1.5 7.1 4.3 13.7 7.8 19.9 3.1 7.6-4.9 14.8-12 14.5-.8 0-.9-1.1-.2-1.3 4.5-1.4 8.6-4.4 9.3-9 .3-1.4-.1-2.6-.8-3.8-3.3-6.2-5.3-13.3-4.8-20.3 0-.5.7-.5.7 0Z"></path><path fill="#000" d="M123 145.7c-2.3-5.9-7.3-11.5-14-11.4-.6-.1-1.6.1-2.2.1-1.7.1-3.1.7-4.4 1.9-6.4 6.4-5.3 17.7-.1 24.8 1.8 2.5 4.1 4.7 6.7 6.5 2.6 1.8 5.5 3.2 8.6 4.4.7.2.4 1.3-.3 1.2-6.7-1.4-13.1-4.7-17.5-10.2-6.8-8.2-8.2-21.9-.1-29.9 1.8-1.6 4.3-2.8 6.8-2.8.8 0 2-.2 2.8 0 4.2.2 8.2 2.3 10.8 5.6 2.3 2.8 3.6 6.2 4 9.6 0 .6-.9.8-1.1.2Z"></path></svg><svg xmlns="http://www.w3.org/2000/svg" width="306" height="306" fill="none" style="z-index: 5; position: absolute; pointer-events: none;"><path fill="#000" d="M222.2 60.5c-24-6.8-26.6 5.6-50.6-7.6-24-13.3-67.5-4.4-75.6 26.5 0 0-13.4 8.2-14.3 36.5-.6 19 9.3 36.4 15.8 45.7 4.4 7.2 9 12.5 11.7 17.3 4.3 7.7 6.4 16.1 6.4 16.1 1-9.6 3.3-18.4 1.9-22.3l-3.3-1.1c-25-9.6-20.5-37.5-8.3-39.1 12.8-1.6 16.8 9.8 17.5 12.6 1.7-2.1 1.1-8.4.7-15.9 20 9.9 40-12.6 46.7-30 8.3-21.5 26.6-4.7 26.6-4.7s18.1 33.9 37.3 18.8c17-13.6 13.6-45.5-12.5-52.8Z"></path></svg><svg xmlns="http://www.w3.org/2000/svg" width="306" height="306" fill="none" style="z-index: 6; position: absolute; pointer-events: none;"><path fill="#000" d="M174.2 122c2.2-.2 3.3-2.8 2.1-4.8-.7-1-1.6-1.9-2.9-2.4-3.8-1.2-16.2 1.5-21.6 7.7-4.8 5.7 12.4.4 22.4-.5ZM200.6 123.6c-1.7-.5-2.2-3-.8-4.6.7-.8 1.7-1.5 2.8-1.7 3.4-.6 11.2 2.5 13.4 8.4 2 5.1-7.3-.1-15.4-2.1ZM158.8 145.2c-2.4-.1-4.2-2.1-4-4.5l.1-2.8c.1-2.4 2.1-4.2 4.5-4 2.4.1 4.2 2.1 4 4.5l-.1 2.8c-.1 2.3-2.1 4.1-4.5 4ZM200.9 146.7c-2.2-.1-3.9-2-3.8-4.2l.1-2.6c.1-2.2 2-3.9 4.2-3.8 2.2.1 3.9 2 3.8 4.2l-.1 2.6c-.1 2.2-2 3.9-4.2 3.8Z"></path><path fill="#000" d="M167.8 139.8c-3.3-2.2-6.9-3.7-10.9-2.9-1.3.2-2.6.6-3.4 1.5-.3.4-1 .3-1-.3.1-2 1.8-3.3 3.4-4.1 3.1-1.6 7.4-1.3 10.2.8 1 .6 4.4 4.3 2.6 5.1-.4.2-.6.1-.9-.1ZM196.399 140.3c0-4.2 5.2-5.7 8.4-4.2 1.8.8 3.1 2.4 3.6 4.3.2.6-.7 1.1-1.1.6-1.7-2-4.6-3-6.9-1.8-.7.4-.8.7-1 1.1 0 2-2.9 1.9-3 0Z"></path></svg><svg xmlns="http://www.w3.org/2000/svg" width="306" height="306" fill="none" style="z-index: 7; position: absolute; pointer-events: none;"><path fill="#000" d="M188.5 179.4c-6.4 6.1-18.5 1.2-21.7-6.2-.4-.9.6-1.7 1.4-1.3 1.7.9 3.2 1.8 4.8 2.5 4.6 2.1 9.4 3.8 14.5 3.3 1-.2 1.7 1 1 1.7Z"></path></svg><svg xmlns="http://www.w3.org/2000/svg" width="306" height="306" fill="none" style="z-index: 8; position: absolute; pointer-events: none;"></svg><svg xmlns="http://www.w3.org/2000/svg" width="306" height="306" fill="none" style="z-index: 9; position: absolute; pointer-events: none;"><path fill="#fff" d="M112.3 148.7s-8-1.2-7.4 10c.3 5.7.3 8.8.2 10.4-.1 1.1.6 2.1 1.6 2.5 1.2.5 2.5 0 3.1-1.2.9-1.6 1.9-3.8 1.9-5.6 0-3 3.2-5.7 3.2-5.7s-2.9-2.5-2.6-10.4Z"></path><path fill="#000" d="M112 149c0 .1.1.2.2.2H111.9c-4.8.4-6.3 4.6-6.1 8.9.1 2.8.3 5.6.2 8.3.2 1.5-.7 3.5.8 4.3.9.5 2.1.1 2.5-.9.9-1.8 1.8-3.6 1.8-5.6.4-2.3 1.9-4.1 3.5-5.5v.8c-2.1-2.2-2.6-5.2-2.9-8 .1-.7.1-1.8.3-2.5Zm.7-.7c.3 2.8.3 5.7 1.5 8.2.3.7.8 1.5 1.4 2 .4.3.4.9 0 1.2-1.4 1.3-2.6 2.9-2.8 4.7 0 2.2-.9 4.3-1.9 6.2-.8 1.7-3.1 2.6-4.8 1.6-1.1-.6-1.9-1.8-1.9-3.1 0-1 .1-1.8.1-2.8 0-2.8-.2-5.5-.3-8.3 0-1.8.1-3.9.9-5.7 1-2.8 4.1-4.7 7.1-4.2.3 0 .6.1.7.2Z"></path><path fill="#000" d="M111 267.1c3.3-14.4-1-30.6-4.7-45-1.5-5.7-3-11.1-3.7-15.8-1.3-7.9-.4-15.4 2.8-22.4 3.9-8.7 3.3-16.1 3.3-16.4l-2 .2c0 .1.6 7.3-3.1 15.4-3.3 7.3-4.3 15.2-3 23.5.8 4.8 2.2 10.3 3.7 16 3.7 14.1 7.9 30.1 4.7 44-1.8 7.7 1.7 20.3 6.7 32.9.8.1 1.5.2 2.3.3-5.1-12.6-8.7-25.3-7-32.7Z"></path><path fill="#fff" d="M105.2 164.5c.1 2.2 0 3.7 0 4.6-.1 1.1.6 2.1 1.6 2.5 1.2.5 2.5 0 3.1-1.2.9-1.6 1.9-3.8 1.9-5.6v-.4c-2 .8-4.4 1.4-6.6.1Z"></path><path fill="#000" d="M105.5 164.9c.1 1.4.2 2.7.2 4.1-.1.6.1 1.2.5 1.7 1.3 1.3 3.1.5 3.6-1.1.8-1.6 1.5-3.3 1.5-5.1l.7.5c-2.2.4-4.5 1-6.6.1 0 0 .1-.1.1-.2Zm-.5-.9c.2 0 .6.1.8.3 1.8 1.3 4.1.7 5.9-.3.3-.2.8.1.7.5-.1 2.3-1 4.5-2.2 6.5-1.1 1.5-3.4 1.6-4.7.3-.6-.6-.9-1.6-.8-2.4 0-1.7.2-3.3.3-4.9ZM199.4 231c1.7-11.8.1-20.2-.5-22.7-.3.2-.5.5-.8.7-.3.3-.6.5-.9.8.6 3.2 1.7 10.8.2 20.9-.7 4.7-.9 12.1-1 20.7-.2 8.3-2.8 29-5.9 48.6.7-.2 1.4-.4 2.1-.5 3.1-19.4 5.6-39.7 5.8-48 .2-8.6.3-15.9 1-20.5Z"></path></svg></svg>